<svg width="659" height="564" viewBox="0 0 659 564" fill="none" xmlns="http://www.w3.org/2000/svg">
<path fill-rule="evenodd" clip-rule="evenodd" d="M329.392 0.455811L329.392 13.3801H645.304C645.39 48.6672 645.308 83.9653 645.308 119.254C645.308 137.374 643.771 150.364 641.087 168.216C630.305 239.933 608.285 306.696 570.953 361.857C563.43 372.974 556.291 382.522 548.377 392.361C546.299 394.945 544.262 397.132 542.244 399.706C539.471 403.245 535.303 407.435 532.992 410.259C531.111 412.559 519.567 424.461 516.943 427.072C511.352 432.637 505.856 438.02 499.826 443.248C498.595 444.315 497.802 445.238 496.538 446.273L491.192 451.026C490.474 451.654 490.052 451.866 489.309 452.53C486.908 454.673 484.658 456.6 482.213 458.489C479.649 460.469 477.445 462.393 474.991 464.323C452.723 481.842 430.168 496.827 403.555 511.687C386.223 521.366 360.305 533.857 341.035 541.44C337.488 542.928 332.983 544.775 329.393 546.258L329.393 563.226L334.963 560.745C343.968 556.668 350.433 553.864 355.045 551.734C388.941 537.734 430.629 515.04 458.808 494.714C463.399 491.402 466.902 489.177 471.197 485.759C481.798 477.32 494.231 468.117 504.163 459.06C510.878 452.937 516.034 448.413 522.602 441.926C526.616 437.961 530.315 433.789 534.668 429.795L554.777 406.935C580.408 375.972 606.124 336.212 623.246 289.689C631.715 266.679 639.82 242.921 645.696 217.945C650.155 198.991 653.611 176.669 656.122 157.155C656.956 151.816 658.337 143.129 658.549 140.663L658.709 0.455811H329.393V13.3801H13.4811C13.3945 48.6672 13.4768 83.9653 13.4768 119.254C13.4768 137.374 15.0143 150.364 17.6982 168.216C28.4806 239.933 50.5005 306.696 87.8319 361.857C95.3555 372.974 102.494 382.522 110.408 392.361C112.486 394.945 114.523 397.132 116.541 399.706C119.314 403.245 123.482 407.435 125.793 410.259C127.674 412.559 139.219 424.461 141.842 427.072C147.433 432.637 152.929 438.02 158.959 443.248C160.19 444.315 160.983 445.238 162.248 446.273L167.593 451.026C168.311 451.654 168.733 451.866 169.476 452.53C171.877 454.673 174.127 456.6 176.573 458.489C179.136 460.469 181.34 462.393 183.794 464.323C206.063 481.842 228.617 496.827 255.23 511.687C272.562 521.366 298.48 533.857 317.75 541.44C321.297 542.928 325.802 544.775 329.393 546.258V563.226L323.822 560.745C314.817 556.668 308.352 553.864 303.74 551.734C269.844 537.734 228.156 515.04 199.977 494.714C195.386 491.402 191.883 489.177 187.588 485.759C176.987 477.32 164.554 468.117 154.622 459.06C147.908 452.937 142.751 448.413 136.183 441.926C132.169 437.961 128.47 433.789 124.117 429.795L104.008 406.935C78.3771 375.972 52.6612 336.212 35.5388 289.689C27.07 266.679 18.9656 242.921 13.0893 217.945C8.63002 198.991 5.17437 176.669 2.66275 157.155C1.82892 151.816 0.447959 143.129 0.23584 140.663V0.820713L329.393 0.455811H329.392ZM333.46 455.556L333.46 420.74H338.326L360.403 434.144C354.812 438.423 338.574 451.492 333.46 455.556V455.556ZM329.392 28.1883L362.332 82.4495L337.688 68.4598C336.615 68.4598 334.923 68.4733 333.46 68.4598V134.1L349.455 134.098C352.953 123.054 363.286 114.168 374.759 110.461C389.399 105.731 402.185 108.187 415.749 113.171C428.534 117.869 437.089 125.246 445.504 132.282C448.225 134.557 456.394 141.747 458.327 143.902C473.529 160.854 487.86 198.911 503.981 220.43C507.544 225.186 510.654 230.002 514.306 234.545C517.914 239.035 521.981 243.742 526.08 247.207C528.48 249.236 530.064 250.655 532.794 252.704C539.572 257.791 549.646 262.699 558.519 263.889C559.419 260.226 561.652 256.645 565.21 255.844C580.691 252.36 585.847 278.095 563.869 279.281C560.156 279.482 560.358 278.963 557.892 280.923L329.392 462.521V28.1883V28.1883ZM360.403 163.459C363.579 158.57 366.966 153.764 370.681 150.633C385.969 137.753 403.926 139.377 420.775 148.178C429.083 152.518 441.496 161.578 445.123 168.051C450.433 177.529 455.702 187.306 461.445 195.98C467.584 205.254 473.321 213.923 479.593 222.486C482.733 226.772 486.044 231.079 489.313 235.098C490.792 236.917 492.414 239.314 494.362 240.994L512.266 256.38C519.709 262.674 529.92 269.719 539.202 273.696C543.064 275.351 554.787 279.018 555.214 279.32C490.496 330.754 425.12 382.645 360.403 434.144V383.788C354.963 380.485 347.417 376.057 338.327 370.384H333.46V163.459H360.403V163.459ZM325.325 455.556L325.324 420.74H320.458L298.382 434.144C303.972 438.423 320.211 451.492 325.325 455.556ZM329.392 28.1883L296.453 82.4495L321.096 68.4598C322.17 68.4598 323.861 68.4733 325.324 68.4598V134.1L309.329 134.098C305.832 123.054 295.499 114.168 284.026 110.461C269.386 105.731 256.6 108.187 243.036 113.171C230.251 117.869 221.695 125.246 213.281 132.282C210.559 134.557 202.391 141.747 200.458 143.902C185.256 160.854 170.925 198.911 154.804 220.43C151.24 225.186 148.13 230.002 144.479 234.545C140.87 239.035 136.804 243.742 132.705 247.207C130.304 249.236 128.721 250.655 125.99 252.704C119.213 257.791 109.138 262.699 100.266 263.889C99.3662 260.226 97.1332 256.645 93.5746 255.844C78.0941 252.36 72.9379 278.095 94.9154 279.281C98.6291 279.482 98.4271 278.963 100.893 280.923L329.392 462.521V28.1883V28.1883ZM298.382 163.459C295.206 158.57 291.819 153.764 288.103 150.633C272.816 137.753 254.859 139.377 238.01 148.178C229.702 152.518 217.289 161.578 213.662 168.051C208.351 177.529 203.082 187.306 197.34 195.98C191.2 205.254 185.463 213.923 179.191 222.486C176.052 226.772 172.741 231.079 169.472 235.098C167.993 236.917 166.371 239.314 164.423 240.994L146.519 256.38C139.076 262.674 128.864 269.719 119.583 273.696C115.721 275.351 103.998 279.018 103.571 279.32C168.288 330.754 233.665 382.645 298.382 434.144V383.788C303.822 380.485 311.368 376.057 320.458 370.384H325.324V163.459H298.382V163.459Z" fill="#1F1A17"/>
</svg>
