<svg width="675" height="150" viewBox="0 0 675 150" fill="none" xmlns="http://www.w3.org/2000/svg">
<path fill-rule="evenodd" clip-rule="evenodd" d="M87.4787 0L87.4787 3.44483H171.437C171.46 12.8502 171.438 22.2585 171.438 31.6642C171.438 36.494 171.03 39.9564 170.317 44.7145C167.451 63.83 161.599 81.6248 151.677 96.3273C149.678 99.2904 147.781 101.835 145.677 104.458C145.125 105.147 144.584 105.73 144.048 106.416C143.31 107.359 142.203 108.476 141.589 109.229C141.089 109.841 138.021 113.014 137.323 113.71C135.837 115.193 134.377 116.628 132.774 118.021C132.447 118.306 132.236 118.552 131.9 118.828L130.48 120.094C130.289 120.262 130.177 120.318 129.979 120.495C129.341 121.066 128.743 121.58 128.093 122.084C127.412 122.611 126.826 123.124 126.174 123.639C120.256 128.308 114.261 132.302 107.189 136.263C102.582 138.843 95.6942 142.172 90.573 144.193C89.6302 144.59 88.433 145.082 87.4788 145.477L87.4787 150L88.9591 149.339C91.3525 148.252 93.0705 147.505 94.2964 146.937C103.305 143.205 114.384 137.157 121.873 131.739C123.093 130.856 124.024 130.263 125.166 129.352C127.983 127.103 131.287 124.65 133.927 122.236C135.711 120.604 137.082 119.398 138.827 117.669C139.894 116.612 140.877 115.5 142.034 114.436L147.378 108.343C154.19 100.09 161.025 89.4922 165.575 77.0919C167.826 70.9587 169.98 64.6265 171.541 57.9692C172.727 52.9173 173.645 46.9677 174.313 41.7663C174.534 40.3433 174.901 38.0278 174.957 37.3706L175 0H87.4787V3.44483H3.52015C3.49712 12.8502 3.51899 22.2585 3.51899 31.6642C3.51899 36.494 3.92762 39.9564 4.64091 44.7145C7.5065 63.83 13.3587 81.6248 23.2801 96.3273C25.2796 99.2904 27.1768 101.835 29.2801 104.458C29.8323 105.147 30.3737 105.73 30.91 106.416C31.6471 107.359 32.7547 108.476 33.3688 109.229C33.8687 109.841 36.9369 113.014 37.6341 113.71C39.1201 115.193 40.5807 116.628 42.1832 118.021C42.5103 118.306 42.7211 118.552 43.0572 118.828L44.4778 120.094C44.6688 120.262 44.7808 120.318 44.9784 120.495C45.6165 121.066 46.2145 121.58 46.8643 122.084C47.5456 122.611 48.1314 123.124 48.7835 123.639C54.7018 128.308 60.6961 132.302 67.7688 136.263C72.375 138.843 79.2633 142.172 84.3845 144.193C85.3273 144.59 86.5245 145.082 87.4787 145.477V150L85.9984 149.339C83.605 148.252 81.887 147.505 80.6611 146.937C71.6528 143.205 60.5736 137.157 53.0846 131.739C51.8643 130.856 50.9333 130.263 49.792 129.352C46.9745 127.103 43.6702 124.65 41.0307 122.236C39.2462 120.604 37.8757 119.398 36.1301 117.669C35.0634 116.612 34.0802 115.5 32.9235 114.436L27.5792 108.343C20.7673 100.09 13.9329 89.4922 9.38234 77.0919C7.13162 70.9587 4.97773 64.6265 3.41603 57.9692C2.23089 52.9173 1.3125 46.9677 0.644992 41.7663C0.423386 40.3433 0.0563742 38.0278 0 37.3706V0.0972606L87.4787 0H87.4787ZM88.5598 121.302L88.5598 112.022H89.8531L95.7203 115.595C94.2345 116.735 89.9189 120.219 88.5598 121.302V121.302ZM87.4787 7.3918L96.233 21.8545L89.6835 18.1257C89.3982 18.1257 88.9486 18.1293 88.5598 18.1257V35.6213L92.8107 35.6209C93.7402 32.6772 96.4864 30.3086 99.5356 29.3207C103.426 28.06 106.824 28.7145 110.429 30.0431C113.827 31.2953 116.101 33.2614 118.337 35.1367C119.06 35.7431 121.231 37.6595 121.745 38.234C125.785 42.7522 129.594 52.8959 133.878 58.6316C134.825 59.8994 135.652 61.1829 136.622 62.3939C137.581 63.5907 138.662 64.8453 139.752 65.7688C140.39 66.3096 140.81 66.6877 141.536 67.2339C143.337 68.5898 146.015 69.898 148.373 70.215C148.612 69.2389 149.205 68.2843 150.151 68.0708C154.265 67.1422 155.636 74.0016 149.795 74.3178C148.808 74.3712 148.861 74.2331 148.206 74.7553L87.4787 123.158V7.3918V7.3918ZM95.7203 43.4466C96.5643 42.1436 97.4644 40.8625 98.4519 40.028C102.515 36.595 107.287 37.0279 111.765 39.3738C113.973 40.5305 117.272 42.9452 118.236 44.6707C119.647 47.1967 121.048 49.8029 122.574 52.1149C124.205 54.5866 125.73 56.8974 127.397 59.1796C128.231 60.3221 129.111 61.4701 129.98 62.5412C130.373 63.026 130.804 63.6651 131.322 64.1127L136.08 68.2137C138.058 69.8913 140.772 71.7691 143.239 72.8291C144.265 73.2701 147.381 74.2475 147.494 74.3281C130.295 88.0372 112.92 101.868 95.7203 115.595V102.173C94.2744 101.292 92.2691 100.112 89.8531 98.6001H88.5598V43.4466H95.7203V43.4466ZM86.3976 121.302L86.3976 112.022H85.1043L79.2371 115.595C80.7229 116.735 85.0385 120.219 86.3976 121.302ZM87.4787 7.3918L78.7244 21.8545L85.2739 18.1257C85.5592 18.1257 86.0088 18.1293 86.3976 18.1257V35.6213L82.1466 35.6209C81.2171 32.6772 78.471 30.3086 75.4217 29.3207C71.531 28.06 68.1329 28.7145 64.528 30.0431C61.1303 31.2953 58.8565 33.2614 56.6201 35.1367C55.8969 35.7431 53.7259 37.6595 53.2122 38.234C49.172 42.7522 45.3634 52.8959 41.0789 58.6316C40.1319 59.8994 39.3054 61.1829 38.335 62.3939C37.3759 63.5907 36.2952 64.8453 35.2059 65.7688C34.5678 66.3096 34.147 66.6877 33.4213 67.2339C31.62 68.5898 28.9426 69.898 26.5847 70.215C26.3455 69.2389 25.752 68.2843 24.8063 68.0708C20.6921 67.1422 19.3218 74.0016 25.1626 74.3178C26.1496 74.3712 26.0959 74.2331 26.7512 74.7553L87.4787 123.158V7.3918V7.3918ZM79.2371 43.4466C78.3931 42.1436 77.493 40.8625 76.5055 40.028C72.4425 36.595 67.6703 37.0279 63.1924 39.3738C60.9844 40.5305 57.6853 42.9452 56.7213 44.6707C55.3101 47.1967 53.9098 49.8029 52.3836 52.1149C50.7519 54.5866 49.2272 56.8974 47.5604 59.1796C46.7259 60.3221 45.8461 61.4701 44.9773 62.5412C44.5841 63.026 44.153 63.6651 43.6354 64.1127L38.8771 68.2137C36.8989 69.8913 34.1851 71.7691 31.7184 72.8291C30.6921 73.2701 27.5765 74.2475 27.4629 74.3281C44.6627 88.0372 62.0376 101.868 79.2371 115.595V102.173C80.683 101.292 82.6883 100.112 85.1043 98.6001H86.3976V43.4466H79.2371V43.4466Z" fill="#1F1A17"/>
<path d="M256.044 51C255.75 51 255.524 50.92 255.364 50.76C255.204 50.5733 255.124 50.3467 255.124 50.08V23.92C255.124 23.6533 255.204 23.44 255.364 23.28C255.524 23.0933 255.75 23 256.044 23H258.164C258.43 23 258.644 23.0933 258.804 23.28C258.964 23.44 259.044 23.6533 259.044 23.92V47.52H272.364C272.657 47.52 272.884 47.6133 273.044 47.8C273.204 47.96 273.284 48.1867 273.284 48.48V50.08C273.284 50.3467 273.204 50.5733 273.044 50.76C272.884 50.92 272.657 51 272.364 51H256.044ZM287.159 51.4C284.919 51.4 282.985 51 281.359 50.2C279.759 49.4 278.519 48.1867 277.639 46.56C276.785 44.9067 276.359 42.7867 276.359 40.2V23.96C276.359 23.6667 276.439 23.44 276.599 23.28C276.759 23.0933 276.985 23 277.279 23H279.319C279.612 23 279.839 23.0933 279.999 23.28C280.185 23.44 280.279 23.6667 280.279 23.96V40.28C280.279 42.8933 280.892 44.8267 282.119 46.08C283.345 47.3333 285.025 47.96 287.159 47.96C289.265 47.96 290.932 47.3333 292.159 46.08C293.412 44.8267 294.039 42.8933 294.039 40.28V23.96C294.039 23.6667 294.119 23.44 294.279 23.28C294.465 23.0933 294.692 23 294.959 23H297.039C297.305 23 297.519 23.0933 297.679 23.28C297.865 23.44 297.959 23.6667 297.959 23.96V40.2C297.959 42.7867 297.519 44.9067 296.639 46.56C295.785 48.1867 294.559 49.4 292.959 50.2C291.359 51 289.425 51.4 287.159 51.4ZM305.166 51C304.872 51 304.646 50.92 304.486 50.76C304.326 50.5733 304.246 50.3467 304.246 50.08V23.96C304.246 23.6667 304.326 23.44 304.486 23.28C304.646 23.0933 304.872 23 305.166 23H307.166C307.459 23 307.686 23.0933 307.846 23.28C308.032 23.44 308.126 23.6667 308.126 23.96V33.88L318.806 23.64C318.912 23.5333 319.086 23.4 319.326 23.24C319.592 23.08 319.939 23 320.366 23H322.526C322.739 23 322.926 23.08 323.086 23.24C323.246 23.4 323.326 23.5867 323.326 23.8C323.326 24.0133 323.272 24.1867 323.166 24.32L310.806 36.4L323.966 49.64C324.099 49.8 324.166 49.9867 324.166 50.2C324.166 50.4133 324.086 50.6 323.926 50.76C323.766 50.92 323.579 51 323.366 51H321.126C320.672 51 320.326 50.92 320.086 50.76C319.846 50.5733 319.672 50.44 319.566 50.36L308.126 39.08V50.08C308.126 50.3467 308.032 50.5733 307.846 50.76C307.686 50.92 307.459 51 307.166 51H305.166ZM336.464 51.4C334.197 51.4 332.25 51.0133 330.624 50.24C328.997 49.44 327.744 48.2267 326.864 46.6C325.984 44.9467 325.49 42.88 325.384 40.4C325.357 39.2267 325.344 38.1067 325.344 37.04C325.344 35.9467 325.357 34.8133 325.384 33.64C325.49 31.1867 325.997 29.1467 326.904 27.52C327.837 25.8667 329.117 24.64 330.744 23.84C332.397 23.0133 334.304 22.6 336.464 22.6C338.65 22.6 340.557 23.0133 342.184 23.84C343.837 24.64 345.13 25.8667 346.064 27.52C346.997 29.1467 347.504 31.1867 347.584 33.64C347.637 34.8133 347.664 35.9467 347.664 37.04C347.664 38.1067 347.637 39.2267 347.584 40.4C347.504 42.88 347.01 44.9467 346.104 46.6C345.224 48.2267 343.97 49.44 342.344 50.24C340.717 51.0133 338.757 51.4 336.464 51.4ZM336.464 48C338.517 48 340.184 47.3867 341.464 46.16C342.77 44.9333 343.477 42.9467 343.584 40.2C343.637 39 343.664 37.9333 343.664 37C343.664 36.04 343.637 34.9733 343.584 33.8C343.53 31.96 343.184 30.4667 342.544 29.32C341.93 28.1733 341.104 27.3333 340.064 26.8C339.024 26.2667 337.824 26 336.464 26C335.157 26 333.984 26.2667 332.944 26.8C331.904 27.3333 331.064 28.1733 330.424 29.32C329.81 30.4667 329.464 31.96 329.384 33.8C329.357 34.9733 329.344 36.04 329.344 37C329.344 37.9333 329.357 39 329.384 40.2C329.49 42.9467 330.197 44.9333 331.504 46.16C332.81 47.3867 334.464 48 336.464 48ZM362.094 51.4C359.774 51.4 357.827 51.0533 356.254 50.36C354.681 49.64 353.467 48.72 352.614 47.6C351.787 46.4533 351.347 45.24 351.294 43.96C351.294 43.7467 351.374 43.56 351.534 43.4C351.721 43.2133 351.934 43.12 352.174 43.12H354.214C354.534 43.12 354.774 43.2 354.934 43.36C355.094 43.52 355.201 43.7067 355.254 43.92C355.387 44.56 355.707 45.2 356.214 45.84C356.747 46.4533 357.481 46.9733 358.414 47.4C359.374 47.8 360.601 48 362.094 48C364.387 48 366.067 47.6 367.134 46.8C368.227 45.9733 368.774 44.88 368.774 43.52C368.774 42.5867 368.481 41.84 367.894 41.28C367.334 40.6933 366.467 40.1733 365.294 39.72C364.121 39.2667 362.601 38.7733 360.734 38.24C358.787 37.68 357.174 37.0667 355.894 36.4C354.614 35.7333 353.654 34.9067 353.014 33.92C352.401 32.9333 352.094 31.68 352.094 30.16C352.094 28.72 352.481 27.44 353.254 26.32C354.027 25.1733 355.134 24.2667 356.574 23.6C358.041 22.9333 359.814 22.6 361.894 22.6C363.547 22.6 364.987 22.8267 366.214 23.28C367.467 23.7067 368.507 24.2933 369.334 25.04C370.161 25.76 370.787 26.5467 371.214 27.4C371.641 28.2267 371.867 29.04 371.894 29.84C371.894 30.0267 371.827 30.2133 371.694 30.4C371.561 30.56 371.347 30.64 371.054 30.64H368.934C368.747 30.64 368.547 30.5867 368.334 30.48C368.147 30.3733 368.001 30.1733 367.894 29.88C367.734 28.7867 367.121 27.8667 366.054 27.12C364.987 26.3733 363.601 26 361.894 26C360.161 26 358.747 26.3333 357.654 27C356.587 27.6667 356.054 28.7067 356.054 30.12C356.054 31.0267 356.307 31.7867 356.814 32.4C357.321 32.9867 358.121 33.5067 359.214 33.96C360.307 34.4133 361.734 34.8933 363.494 35.4C365.627 35.9867 367.374 36.6133 368.734 37.28C370.094 37.92 371.094 38.7333 371.734 39.72C372.401 40.68 372.734 41.92 372.734 43.44C372.734 45.12 372.294 46.56 371.414 47.76C370.534 48.9333 369.294 49.84 367.694 50.48C366.121 51.0933 364.254 51.4 362.094 51.4ZM384.304 51C384.038 51 383.811 50.92 383.624 50.76C383.464 50.5733 383.384 50.3467 383.384 50.08V26.56H375.704C375.438 26.56 375.211 26.48 375.024 26.32C374.864 26.1333 374.784 25.9067 374.784 25.64V23.96C374.784 23.6667 374.864 23.44 375.024 23.28C375.211 23.0933 375.438 23 375.704 23H394.984C395.278 23 395.504 23.0933 395.664 23.28C395.851 23.44 395.944 23.6667 395.944 23.96V25.64C395.944 25.9067 395.851 26.1333 395.664 26.32C395.504 26.48 395.278 26.56 394.984 26.56H387.344V50.08C387.344 50.3467 387.251 50.5733 387.064 50.76C386.904 50.92 386.678 51 386.384 51H384.304ZM400.948 51C400.655 51 400.428 50.92 400.268 50.76C400.108 50.5733 400.028 50.3467 400.028 50.08V23.96C400.028 23.6667 400.108 23.44 400.268 23.28C400.428 23.0933 400.655 23 400.948 23H410.708C413.722 23 416.108 23.7067 417.868 25.12C419.628 26.5333 420.508 28.6267 420.508 31.4C420.508 33.4533 419.988 35.1333 418.948 36.44C417.935 37.72 416.548 38.6133 414.788 39.12L420.948 49.76C421.028 49.92 421.068 50.0667 421.068 50.2C421.068 50.4133 420.975 50.6 420.788 50.76C420.628 50.92 420.442 51 420.228 51H418.308C417.855 51 417.522 50.88 417.308 50.64C417.095 50.4 416.908 50.16 416.748 49.92L410.948 39.76H403.948V50.08C403.948 50.3467 403.855 50.5733 403.668 50.76C403.508 50.92 403.282 51 402.988 51H400.948ZM403.948 36.36H410.548C412.548 36.36 414.042 35.9467 415.028 35.12C416.015 34.2667 416.508 33.0133 416.508 31.36C416.508 29.7333 416.015 28.4933 415.028 27.64C414.068 26.7867 412.575 26.36 410.548 26.36H403.948V36.36ZM408.188 21C407.975 21 407.775 20.9733 407.588 20.92C407.402 20.84 407.162 20.6667 406.868 20.4L403.188 16.72C402.895 16.4267 402.748 16.1733 402.748 15.96C402.748 15.6667 402.948 15.52 403.348 15.52H404.428C404.615 15.52 404.815 15.5467 405.028 15.6C405.242 15.6267 405.415 15.6933 405.548 15.8L408.828 18.04L412.108 15.8C412.242 15.6933 412.415 15.6267 412.628 15.6C412.842 15.5467 413.042 15.52 413.228 15.52H414.308C414.682 15.52 414.868 15.6667 414.868 15.96C414.868 16.1733 414.735 16.4267 414.468 16.72L410.788 20.4C410.522 20.6667 410.295 20.84 410.108 20.92C409.922 20.9733 409.708 21 409.468 21H408.188ZM426.759 51C426.466 51 426.239 50.92 426.079 50.76C425.919 50.5733 425.839 50.3467 425.839 50.08V23.96C425.839 23.6667 425.919 23.44 426.079 23.28C426.239 23.0933 426.466 23 426.759 23H443.279C443.573 23 443.799 23.0933 443.959 23.28C444.119 23.44 444.199 23.6667 444.199 23.96V25.48C444.199 25.7733 444.119 26 443.959 26.16C443.799 26.32 443.573 26.4 443.279 26.4H429.679V35.16H442.399C442.693 35.16 442.919 35.2533 443.079 35.44C443.239 35.6 443.319 35.8267 443.319 36.12V37.6C443.319 37.8667 443.239 38.0933 443.079 38.28C442.919 38.44 442.693 38.52 442.399 38.52H429.679V47.6H443.599C443.893 47.6 444.119 47.68 444.279 47.84C444.439 48 444.519 48.2267 444.519 48.52V50.08C444.519 50.3467 444.439 50.5733 444.279 50.76C444.119 50.92 443.893 51 443.599 51H426.759ZM450.617 51C450.324 51 450.097 50.92 449.937 50.76C449.777 50.5733 449.697 50.3467 449.697 50.08V23.92C449.697 23.6533 449.777 23.44 449.937 23.28C450.097 23.0933 450.324 23 450.617 23H452.737C453.004 23 453.217 23.0933 453.377 23.28C453.537 23.44 453.617 23.6533 453.617 23.92V47.52H466.937C467.231 47.52 467.457 47.6133 467.617 47.8C467.777 47.96 467.857 48.1867 467.857 48.48V50.08C467.857 50.3467 467.777 50.5733 467.617 50.76C467.457 50.92 467.231 51 466.937 51H450.617ZM472.756 51C472.463 51 472.236 50.92 472.076 50.76C471.916 50.5733 471.836 50.3467 471.836 50.08V23.96C471.836 23.6667 471.916 23.44 472.076 23.28C472.236 23.0933 472.463 23 472.756 23H489.276C489.57 23 489.796 23.0933 489.956 23.28C490.116 23.44 490.196 23.6667 490.196 23.96V25.48C490.196 25.7733 490.116 26 489.956 26.16C489.796 26.32 489.57 26.4 489.276 26.4H475.676V35.16H488.396C488.69 35.16 488.916 35.2533 489.076 35.44C489.236 35.6 489.316 35.8267 489.316 36.12V37.6C489.316 37.8667 489.236 38.0933 489.076 38.28C488.916 38.44 488.69 38.52 488.396 38.52H475.676V47.6H489.596C489.89 47.6 490.116 47.68 490.276 47.84C490.436 48 490.516 48.2267 490.516 48.52V50.08C490.516 50.3467 490.436 50.5733 490.276 50.76C490.116 50.92 489.89 51 489.596 51H472.756ZM505.501 51.4C503.047 51.4 501.007 50.9467 499.381 50.04C497.781 49.1333 496.567 47.8667 495.741 46.24C494.914 44.6133 494.461 42.72 494.381 40.56C494.354 39.4667 494.341 38.2933 494.341 37.04C494.341 35.7867 494.354 34.5867 494.381 33.44C494.461 31.28 494.914 29.3867 495.741 27.76C496.567 26.1333 497.781 24.8667 499.381 23.96C501.007 23.0533 503.047 22.6 505.501 22.6C507.341 22.6 508.954 22.8533 510.341 23.36C511.727 23.8667 512.874 24.5467 513.781 25.4C514.714 26.2533 515.421 27.2133 515.901 28.28C516.381 29.32 516.647 30.4 516.701 31.52C516.727 31.76 516.647 31.96 516.461 32.12C516.301 32.28 516.101 32.36 515.861 32.36H513.661C513.421 32.36 513.207 32.2933 513.021 32.16C512.861 32.0267 512.741 31.7867 512.661 31.44C512.207 29.36 511.354 27.9333 510.101 27.16C508.874 26.3867 507.327 26 505.461 26C503.327 26 501.634 26.6133 500.381 27.84C499.127 29.04 498.447 30.9733 498.341 33.64C498.261 35.8267 498.261 38.0667 498.341 40.36C498.447 43.0267 499.127 44.9733 500.381 46.2C501.634 47.4 503.327 48 505.461 48C507.327 48 508.874 47.6133 510.101 46.84C511.354 46.0667 512.207 44.64 512.661 42.56C512.741 42.2133 512.861 41.9733 513.021 41.84C513.207 41.7067 513.421 41.64 513.661 41.64H515.861C516.101 41.64 516.301 41.72 516.461 41.88C516.647 42.04 516.727 42.24 516.701 42.48C516.647 43.6 516.381 44.6933 515.901 45.76C515.421 46.8 514.714 47.7467 513.781 48.6C512.874 49.4533 511.727 50.1333 510.341 50.64C508.954 51.1467 507.341 51.4 505.501 51.4ZM522.581 51C522.288 51 522.061 50.92 521.901 50.76C521.741 50.5733 521.661 50.3467 521.661 50.08V23.96C521.661 23.6667 521.741 23.44 521.901 23.28C522.061 23.0933 522.288 23 522.581 23H524.581C524.875 23 525.101 23.0933 525.261 23.28C525.448 23.44 525.541 23.6667 525.541 23.96V33.88L536.221 23.64C536.328 23.5333 536.501 23.4 536.741 23.24C537.008 23.08 537.355 23 537.781 23H539.941C540.155 23 540.341 23.08 540.501 23.24C540.661 23.4 540.741 23.5867 540.741 23.8C540.741 24.0133 540.688 24.1867 540.581 24.32L528.221 36.4L541.381 49.64C541.515 49.8 541.581 49.9867 541.581 50.2C541.581 50.4133 541.501 50.6 541.341 50.76C541.181 50.92 540.995 51 540.781 51H538.541C538.088 51 537.741 50.92 537.501 50.76C537.261 50.5733 537.088 50.44 536.981 50.36L525.541 39.08V50.08C525.541 50.3467 525.448 50.5733 525.261 50.76C525.101 50.92 524.875 51 524.581 51H522.581ZM553.685 51C553.418 51 553.191 50.92 553.005 50.76C552.845 50.5733 552.765 50.3467 552.765 50.08V40.64L543.125 24.32C543.098 24.24 543.071 24.16 543.045 24.08C543.018 24 543.005 23.9067 543.005 23.8C543.005 23.5867 543.085 23.4 543.245 23.24C543.405 23.08 543.591 23 543.805 23H545.885C546.125 23 546.338 23.0667 546.525 23.2C546.711 23.3067 546.845 23.4667 546.925 23.68L554.725 36.64L562.525 23.68C562.658 23.4667 562.805 23.3067 562.965 23.2C563.151 23.0667 563.365 23 563.605 23H565.645C565.885 23 566.085 23.08 566.245 23.24C566.405 23.4 566.485 23.5867 566.485 23.8C566.485 23.9067 566.471 24 566.445 24.08C566.418 24.16 566.378 24.24 566.325 24.32L556.725 40.64V50.08C556.725 50.3467 556.631 50.5733 556.445 50.76C556.285 50.92 556.058 51 555.765 51H553.685ZM553.645 21C553.218 21 553.005 20.7867 553.005 20.36C553.005 20.1467 553.071 19.9733 553.205 19.84L556.205 16.24C556.445 15.9467 556.658 15.76 556.845 15.68C557.031 15.5733 557.311 15.52 557.685 15.52H560.645C561.151 15.52 561.405 15.7733 561.405 16.28C561.405 16.4667 561.338 16.6267 561.205 16.76L556.565 20.56C556.351 20.7467 556.151 20.8667 555.965 20.92C555.778 20.9733 555.538 21 555.245 21H553.645ZM579.936 51C579.643 51 579.416 50.92 579.256 50.76C579.096 50.5733 579.016 50.3467 579.016 50.08V23.96C579.016 23.6667 579.096 23.44 579.256 23.28C579.416 23.0933 579.643 23 579.936 23H581.936C582.229 23 582.456 23.0933 582.616 23.28C582.803 23.44 582.896 23.6667 582.896 23.96V33.88L593.576 23.64C593.683 23.5333 593.856 23.4 594.096 23.24C594.363 23.08 594.709 23 595.136 23H597.296C597.509 23 597.696 23.08 597.856 23.24C598.016 23.4 598.096 23.5867 598.096 23.8C598.096 24.0133 598.043 24.1867 597.936 24.32L585.576 36.4L598.736 49.64C598.869 49.8 598.936 49.9867 598.936 50.2C598.936 50.4133 598.856 50.6 598.696 50.76C598.536 50.92 598.349 51 598.136 51H595.896C595.443 51 595.096 50.92 594.856 50.76C594.616 50.5733 594.443 50.44 594.336 50.36L582.896 39.08V50.08C582.896 50.3467 582.803 50.5733 582.616 50.76C582.456 50.92 582.229 51 581.936 51H579.936ZM603.559 51C603.266 51 603.039 50.92 602.879 50.76C602.719 50.5733 602.639 50.3467 602.639 50.08V23.92C602.639 23.6533 602.719 23.44 602.879 23.28C603.039 23.0933 603.266 23 603.559 23H605.679C605.946 23 606.159 23.0933 606.319 23.28C606.479 23.44 606.559 23.6533 606.559 23.92V47.52H619.879C620.173 47.52 620.399 47.6133 620.559 47.8C620.719 47.96 620.799 48.1867 620.799 48.48V50.08C620.799 50.3467 620.719 50.5733 620.559 50.76C620.399 50.92 620.173 51 619.879 51H603.559ZM634.674 51.4C632.434 51.4 630.501 51 628.874 50.2C627.274 49.4 626.034 48.1867 625.154 46.56C624.301 44.9067 623.874 42.7867 623.874 40.2V23.96C623.874 23.6667 623.954 23.44 624.114 23.28C624.274 23.0933 624.501 23 624.794 23H626.834C627.128 23 627.354 23.0933 627.514 23.28C627.701 23.44 627.794 23.6667 627.794 23.96V40.28C627.794 42.8933 628.408 44.8267 629.634 46.08C630.861 47.3333 632.541 47.96 634.674 47.96C636.781 47.96 638.448 47.3333 639.674 46.08C640.928 44.8267 641.554 42.8933 641.554 40.28V23.96C641.554 23.6667 641.634 23.44 641.794 23.28C641.981 23.0933 642.208 23 642.474 23H644.554C644.821 23 645.034 23.0933 645.194 23.28C645.381 23.44 645.474 23.6667 645.474 23.96V40.2C645.474 42.7867 645.034 44.9067 644.154 46.56C643.301 48.1867 642.074 49.4 640.474 50.2C638.874 51 636.941 51.4 634.674 51.4ZM652.681 51C652.388 51 652.161 50.92 652.001 50.76C651.841 50.5733 651.761 50.3467 651.761 50.08V23.96C651.761 23.6667 651.841 23.44 652.001 23.28C652.161 23.0933 652.388 23 652.681 23H663.641C665.641 23 667.268 23.3333 668.521 24C669.801 24.64 670.735 25.52 671.321 26.64C671.935 27.76 672.241 29.0133 672.241 30.4C672.241 31.4933 672.055 32.44 671.681 33.24C671.335 34.0133 670.895 34.6533 670.361 35.16C669.828 35.64 669.308 36.0133 668.801 36.28C669.841 36.7867 670.761 37.6133 671.561 38.76C672.388 39.9067 672.801 41.2933 672.801 42.92C672.801 44.3867 672.468 45.7333 671.801 46.96C671.135 48.1867 670.135 49.1733 668.801 49.92C667.495 50.64 665.868 51 663.921 51H652.681ZM655.681 47.76H663.401C665.135 47.76 666.468 47.2933 667.401 46.36C668.335 45.4267 668.801 44.28 668.801 42.92C668.801 41.5067 668.335 40.3467 667.401 39.44C666.468 38.5067 665.135 38.04 663.401 38.04H655.681V47.76ZM655.681 34.84H663.041C664.748 34.84 666.041 34.4533 666.921 33.68C667.801 32.88 668.241 31.8 668.241 30.44C668.241 29.08 667.801 28.04 666.921 27.32C666.041 26.6 664.748 26.24 663.041 26.24H655.681V34.84ZM324.919 115C324.479 115 324.119 114.86 323.839 114.58C323.559 114.3 323.419 113.94 323.419 113.5V74.5C323.419 74.06 323.559 73.7 323.839 73.42C324.119 73.14 324.479 73 324.919 73H341.719C345.039 73 347.919 73.52 350.359 74.56C352.839 75.56 354.759 77.08 356.119 79.12C357.519 81.16 358.219 83.74 358.219 86.86C358.219 89.94 357.519 92.48 356.119 94.48C354.759 96.48 352.839 97.96 350.359 98.92C347.919 99.88 345.039 100.36 341.719 100.36H334.579V113.5C334.579 113.94 334.419 114.3 334.099 114.58C333.819 114.86 333.459 115 333.019 115H324.919ZM334.399 92.08H341.419C343.139 92.08 344.499 91.64 345.499 90.76C346.539 89.88 347.059 88.54 347.059 86.74C347.059 85.22 346.619 83.94 345.739 82.9C344.859 81.86 343.419 81.34 341.419 81.34H334.399V92.08ZM365.466 115C365.026 115 364.666 114.86 364.386 114.58C364.106 114.3 363.966 113.94 363.966 113.5V74.5C363.966 74.06 364.106 73.7 364.386 73.42C364.666 73.14 365.026 73 365.466 73H373.386C373.786 73 374.126 73.14 374.406 73.42C374.726 73.7 374.886 74.06 374.886 74.5V105.94H393.006C393.446 105.94 393.806 106.1 394.086 106.42C394.406 106.7 394.566 107.06 394.566 107.5V113.5C394.566 113.94 394.406 114.3 394.086 114.58C393.806 114.86 393.446 115 393.006 115H365.466ZM399.346 115C398.906 115 398.546 114.86 398.266 114.58C397.986 114.26 397.846 113.9 397.846 113.5V107.62C397.846 107.06 397.946 106.6 398.146 106.24C398.386 105.88 398.586 105.62 398.746 105.46L418.066 81.94H399.886C399.486 81.94 399.126 81.8 398.806 81.52C398.526 81.24 398.386 80.88 398.386 80.44V74.5C398.386 74.06 398.526 73.7 398.806 73.42C399.126 73.14 399.486 73 399.886 73H430.126C430.566 73 430.926 73.14 431.206 73.42C431.526 73.7 431.686 74.06 431.686 74.5V80.32C431.686 80.76 431.606 81.14 431.446 81.46C431.326 81.78 431.146 82.08 430.906 82.36L412.126 105.94H430.846C431.286 105.94 431.646 106.1 431.926 106.42C432.246 106.7 432.406 107.06 432.406 107.5V113.5C432.406 113.94 432.246 114.3 431.926 114.58C431.646 114.86 431.286 115 430.846 115H399.346ZM440.29 115C439.85 115 439.49 114.86 439.21 114.58C438.93 114.3 438.79 113.94 438.79 113.5V74.5C438.79 74.06 438.93 73.7 439.21 73.42C439.49 73.14 439.85 73 440.29 73H468.31C468.75 73 469.11 73.14 469.39 73.42C469.67 73.7 469.81 74.06 469.81 74.5V80.14C469.81 80.58 469.67 80.94 469.39 81.22C469.11 81.5 468.75 81.64 468.31 81.64H449.17V89.74H466.99C467.43 89.74 467.79 89.9 468.07 90.22C468.35 90.5 468.49 90.86 468.49 91.3V96.52C468.49 96.92 468.35 97.28 468.07 97.6C467.79 97.88 467.43 98.02 466.99 98.02H449.17V106.36H468.79C469.23 106.36 469.59 106.5 469.87 106.78C470.15 107.06 470.29 107.42 470.29 107.86V113.5C470.29 113.94 470.15 114.3 469.87 114.58C469.59 114.86 469.23 115 468.79 115H440.29ZM478.61 115C478.17 115 477.81 114.86 477.53 114.58C477.25 114.3 477.11 113.94 477.11 113.5V74.5C477.11 74.06 477.25 73.7 477.53 73.42C477.81 73.14 478.17 73 478.61 73H484.97C485.65 73 486.13 73.16 486.41 73.48C486.73 73.76 486.93 73.98 487.01 74.14L501.65 97.24V74.5C501.65 74.06 501.79 73.7 502.07 73.42C502.35 73.14 502.71 73 503.15 73H510.35C510.79 73 511.15 73.14 511.43 73.42C511.71 73.7 511.85 74.06 511.85 74.5V113.5C511.85 113.9 511.71 114.26 511.43 114.58C511.15 114.86 510.79 115 510.35 115H503.93C503.29 115 502.81 114.84 502.49 114.52C502.21 114.2 502.03 113.98 501.95 113.86L487.31 91.66V113.5C487.31 113.94 487.17 114.3 486.89 114.58C486.61 114.86 486.25 115 485.81 115H478.61ZM491.93 70C491.53 70 491.17 69.94 490.85 69.82C490.57 69.66 490.21 69.38 489.77 68.98L483.65 62.5C483.33 62.18 483.17 61.86 483.17 61.54C483.17 60.98 483.49 60.7 484.13 60.7H487.13C487.49 60.7 487.85 60.74 488.21 60.82C488.57 60.86 488.91 60.96 489.23 61.12L494.45 64.06L499.73 61.12C500.05 60.96 500.37 60.86 500.69 60.82C501.05 60.74 501.41 60.7 501.77 60.7H504.83C505.43 60.7 505.73 60.98 505.73 61.54C505.73 61.86 505.57 62.18 505.25 62.5L499.13 68.98C498.73 69.38 498.37 69.66 498.05 69.82C497.73 69.94 497.39 70 497.03 70H491.93ZM545.429 115C545.029 115 544.669 114.86 544.349 114.58C544.069 114.3 543.929 113.94 543.929 113.5V84.94L535.709 91.24C535.349 91.52 534.969 91.62 534.569 91.54C534.209 91.46 533.889 91.24 533.609 90.88L530.069 86.26C529.829 85.9 529.729 85.52 529.769 85.12C529.849 84.68 530.089 84.34 530.489 84.1L544.289 73.42C544.529 73.26 544.749 73.16 544.949 73.12C545.189 73.04 545.449 73 545.729 73H553.229C553.629 73 553.969 73.14 554.249 73.42C554.569 73.7 554.729 74.06 554.729 74.5V113.5C554.729 113.94 554.569 114.3 554.249 114.58C553.969 114.86 553.629 115 553.229 115H545.429ZM569.073 115C568.713 115 568.413 114.88 568.173 114.64C567.933 114.36 567.813 114.04 567.813 113.68C567.813 113.48 567.833 113.32 567.873 113.2C567.953 113.08 568.013 112.98 568.053 112.9L576.513 101.32C575.953 101.44 575.373 101.5 574.773 101.5C572.973 101.38 571.213 100.98 569.493 100.3C567.773 99.58 566.213 98.62 564.813 97.42C563.453 96.18 562.373 94.72 561.573 93.04C560.773 91.36 560.373 89.48 560.373 87.4C560.373 85.48 560.733 83.64 561.453 81.88C562.173 80.08 563.253 78.48 564.693 77.08C566.133 75.64 567.913 74.5 570.033 73.66C572.193 72.82 574.693 72.4 577.533 72.4C580.373 72.4 582.873 72.78 585.033 73.54C587.233 74.3 589.073 75.36 590.553 76.72C592.073 78.04 593.213 79.58 593.973 81.34C594.733 83.1 595.113 84.98 595.113 86.98C595.113 88.82 594.773 90.52 594.093 92.08C593.453 93.64 592.653 95.12 591.693 96.52C590.733 97.88 589.773 99.26 588.813 100.66L579.213 113.8C579.053 114 578.813 114.26 578.493 114.58C578.173 114.86 577.693 115 577.053 115H569.073ZM577.653 93.64C578.853 93.64 579.933 93.38 580.893 92.86C581.853 92.34 582.613 91.62 583.173 90.7C583.733 89.78 584.013 88.66 584.013 87.34C584.013 86.02 583.733 84.9 583.173 83.98C582.613 83.02 581.853 82.3 580.893 81.82C579.933 81.3 578.853 81.04 577.653 81.04C576.493 81.04 575.433 81.3 574.473 81.82C573.513 82.3 572.753 83.02 572.193 83.98C571.633 84.9 571.353 86.02 571.353 87.34C571.353 88.66 571.633 89.78 572.193 90.7C572.753 91.62 573.513 92.34 574.473 92.86C575.433 93.38 576.493 93.64 577.653 93.64ZM616.16 115.6C613.04 115.6 610.38 115.24 608.18 114.52C605.98 113.76 604.18 112.8 602.78 111.64C601.38 110.44 600.34 109.18 599.66 107.86C598.98 106.5 598.62 105.2 598.58 103.96C598.58 103.6 598.7 103.3 598.94 103.06C599.22 102.82 599.54 102.7 599.9 102.7H607.7C608.18 102.7 608.56 102.8 608.84 103C609.12 103.16 609.38 103.44 609.62 103.84C609.94 104.6 610.4 105.22 611 105.7C611.64 106.18 612.4 106.52 613.28 106.72C614.16 106.88 615.12 106.96 616.16 106.96C618.2 106.96 619.78 106.5 620.9 105.58C622.06 104.62 622.64 103.32 622.64 101.68C622.64 99.96 622.1 98.74 621.02 98.02C619.94 97.26 618.4 96.88 616.4 96.88H609.74C609.3 96.88 608.94 96.74 608.66 96.46C608.38 96.18 608.24 95.82 608.24 95.38V92.02C608.24 91.54 608.34 91.12 608.54 90.76C608.74 90.4 608.96 90.14 609.2 89.98L619.04 81.64H602.36C601.96 81.64 601.6 81.5 601.28 81.22C601 80.94 600.86 80.58 600.86 80.14V74.5C600.86 74.06 601 73.7 601.28 73.42C601.6 73.14 601.96 73 602.36 73H629.96C630.4 73 630.76 73.14 631.04 73.42C631.36 73.7 631.52 74.06 631.52 74.5V79.6C631.52 80.04 631.42 80.44 631.22 80.8C631.02 81.12 630.8 81.38 630.56 81.58L621.44 90.04L621.86 90.16C624.14 90.44 626.18 91.06 627.98 92.02C629.78 92.94 631.2 94.24 632.24 95.92C633.28 97.6 633.8 99.74 633.8 102.34C633.8 105.06 633.02 107.42 631.46 109.42C629.94 111.38 627.86 112.9 625.22 113.98C622.58 115.06 619.56 115.6 616.16 115.6ZM655.411 115.66C651.651 115.66 648.511 115.08 645.991 113.92C643.471 112.72 641.551 111.18 640.231 109.3C638.951 107.38 638.271 105.32 638.191 103.12C638.191 102.76 638.311 102.46 638.551 102.22C638.791 101.98 639.091 101.86 639.451 101.86H647.491C648.011 101.86 648.411 101.98 648.691 102.22C649.011 102.42 649.251 102.68 649.411 103C649.771 103.92 650.231 104.68 650.791 105.28C651.391 105.88 652.071 106.32 652.831 106.6C653.631 106.88 654.511 107.02 655.471 107.02C656.591 107.02 657.631 106.78 658.591 106.3C659.551 105.82 660.311 105.12 660.871 104.2C661.471 103.24 661.771 102.1 661.771 100.78C661.771 99.58 661.491 98.54 660.931 97.66C660.411 96.78 659.671 96.08 658.711 95.56C657.751 95.04 656.671 94.78 655.471 94.78C654.511 94.78 653.731 94.9 653.131 95.14C652.531 95.34 652.031 95.6 651.631 95.92C651.231 96.24 650.871 96.52 650.551 96.76C650.231 96.96 649.871 97.06 649.471 97.06H641.611C641.251 97.06 640.931 96.94 640.651 96.7C640.411 96.42 640.291 96.1 640.291 95.74L642.451 74.8C642.531 74.2 642.751 73.76 643.111 73.48C643.471 73.16 643.911 73 644.431 73H668.491C668.931 73 669.291 73.14 669.571 73.42C669.851 73.7 669.991 74.06 669.991 74.5V80.14C669.991 80.58 669.851 80.94 669.571 81.22C669.291 81.5 668.931 81.64 668.491 81.64H651.091L650.311 89.44C651.191 88.84 652.211 88.36 653.371 88C654.571 87.6 656.191 87.4 658.231 87.4C660.151 87.4 661.971 87.72 663.691 88.36C665.451 89 667.011 89.92 668.371 91.12C669.771 92.32 670.851 93.76 671.611 95.44C672.411 97.08 672.811 98.94 672.811 101.02C672.811 103.86 672.111 106.38 670.711 108.58C669.351 110.78 667.371 112.52 664.771 113.8C662.171 115.04 659.051 115.66 655.411 115.66Z" fill="black"/>
<path d="M229.499 121C228.566 121 227.819 120.72 227.259 120.16C226.699 119.6 226.419 118.853 226.419 117.92V34.48L201.359 53.8C200.613 54.36 199.819 54.5933 198.979 54.5C198.233 54.4067 197.579 53.9867 197.019 53.24L195.479 51.28C194.919 50.5333 194.686 49.7867 194.779 49.04C194.873 48.2 195.293 47.5 196.039 46.94L225.859 23.98C226.513 23.5133 227.119 23.2333 227.679 23.14C228.239 23.0467 228.846 23 229.499 23H232.159C233.093 23 233.839 23.28 234.399 23.84C234.959 24.4 235.239 25.1467 235.239 26.08V117.92C235.239 118.853 234.959 119.6 234.399 120.16C233.839 120.72 233.093 121 232.159 121H229.499ZM259.941 121C259.007 121 258.261 120.72 257.701 120.16C257.141 119.6 256.861 118.853 256.861 117.92V111.2C256.861 110.267 257.141 109.52 257.701 108.96C258.261 108.307 259.007 107.98 259.941 107.98H266.661C267.594 107.98 268.341 108.307 268.901 108.96C269.554 109.52 269.881 110.267 269.881 111.2V117.92C269.881 118.853 269.554 119.6 268.901 120.16C268.341 120.72 267.594 121 266.661 121H259.941Z" fill="black"/>
</svg>
