<?xml version="1.0" encoding="UTF-8" standalone="no"?>
<!-- Created with Inkscape (http://www.inkscape.org/) -->

<svg
   xmlns:dc="http://purl.org/dc/elements/1.1/"
   xmlns:cc="http://creativecommons.org/ns#"
   xmlns:rdf="http://www.w3.org/1999/02/22-rdf-syntax-ns#"
   xmlns:svg="http://www.w3.org/2000/svg"
   xmlns="http://www.w3.org/2000/svg"
   xmlns:sodipodi="http://sodipodi.sourceforge.net/DTD/sodipodi-0.dtd"
   xmlns:inkscape="http://www.inkscape.org/namespaces/inkscape"
   version="1.1"
   id="svg1449"
   width="1548.9409"
   height="241.30469"
   viewBox="0 0 1548.9409 241.30469"
   sodipodi:docname="sportovni-plzen.svg"
   inkscape:version="0.92.4 (5da689c313, 2019-01-14)">
  <metadata
     id="metadata1455">
    <rdf:RDF>
      <cc:Work
         rdf:about="">
        <dc:format>image/svg+xml</dc:format>
        <dc:type
           rdf:resource="http://purl.org/dc/dcmitype/StillImage" />
        <dc:title />
      </cc:Work>
    </rdf:RDF>
  </metadata>
  <defs
     id="defs1453" />
  <sodipodi:namedview
     pagecolor="#ffffff"
     bordercolor="#666666"
     borderopacity="1"
     objecttolerance="10"
     gridtolerance="10"
     guidetolerance="10"
     inkscape:pageopacity="0"
     inkscape:pageshadow="2"
     inkscape:window-width="1920"
     inkscape:window-height="1057"
     id="namedview1451"
     showgrid="false"
     showguides="true"
     inkscape:guide-bbox="true"
     inkscape:zoom="0.5"
     inkscape:cx="1191.9003"
     inkscape:cy="-421.55133"
     inkscape:window-x="-8"
     inkscape:window-y="395"
     inkscape:window-maximized="1"
     inkscape:current-layer="svg1449" />
  <g
     id="g855">
    <path
       id="rect2013"
       d="M 1015.8418 0 L 894.40625 121.01367 L 1015.8418 241.30469 L 1548.9414 241.30469 L 1548.9414 0 L 1015.8418 0 z M 1433.125 54.164062 L 1442.75 65.664062 L 1451.125 54.289062 L 1477.25 54.289062 L 1455.5 83.664062 L 1428 83.664062 L 1407.25 54.289062 L 1433.125 54.164062 z M 1159.125 54.789062 L 1189.125 54.789062 L 1189.125 181.28906 L 1159.125 181.28906 L 1159.125 54.789062 z M 1100.1699 59.980469 C 1117.3183 61.188139 1145.6226 69.63286 1146.375 104.28906 C 1146.7085 125.75367 1134.4269 150.5739 1089.8887 150.73828 L 1076.125 150.78906 L 1076.125 181.03906 L 1045.625 181.03906 L 1045.625 60.039062 L 1100.1699 59.980469 z M 1076.3379 86.976562 L 1076.3379 123.41797 L 1097.3984 123.41797 C 1120.0915 120.59486 1123.6995 90.997113 1097.4121 86.976562 L 1076.3379 86.976562 z M 1451.375 92.289062 C 1474.9529 93.596583 1485.0033 106.87661 1488.125 126.28906 L 1488.125 181.28906 L 1458.0625 181.28906 L 1458.0625 131.91406 C 1454.5126 115.66386 1437.5251 116.83687 1427.4531 127.11719 L 1427.4531 181.38867 L 1397.9316 181.38867 L 1397.9316 94.589844 L 1427.4531 94.414062 L 1427.4531 99.541016 C 1433.5379 95.345946 1441.2859 92.715402 1451.375 92.289062 z M 1337.9277 92.607422 C 1347.3797 92.480114 1356.789 94.836833 1364.125 99.126953 C 1375.3604 105.6975 1380.8993 114.99749 1383.3438 125.11914 C 1384.9251 131.66761 1384.625 145.28906 1384.625 145.28906 L 1321.625 145.28906 C 1322.7552 152.47933 1327.276 157.65025 1336.2363 160.17578 C 1339.4478 160.77982 1342.7684 161.00464 1345.8711 160.17578 C 1348.3805 159.50542 1350.0663 158.66022 1352.625 156.28906 L 1382.125 156.28906 C 1377.7361 174.47336 1361.4858 183.98422 1341.375 184.03906 C 1318.0603 183.13827 1305.5008 173.27435 1298.1406 159.07812 C 1289.5249 140.53484 1291.7462 113.40228 1314.2051 99.126953 C 1321.2148 94.765811 1329.5878 92.719753 1337.9277 92.607422 z M 1204.1836 94.414062 L 1284.2637 94.414062 L 1284.2637 111.56055 L 1245.7266 157.3457 L 1284.2637 157.3457 L 1284.2637 181.38867 L 1203.3008 181.38867 L 1203.3008 166.89258 L 1243.6055 119.51562 L 1204.3164 119.51562 L 1204.1836 94.414062 z M 1340 114.66406 C 1328.5364 115.1689 1324.6591 120.60752 1321.75 127.91406 L 1356.375 127.91406 C 1353.7479 116.74933 1346.5685 114.6397 1340 114.66406 z "
       style="fill:#1FA22E;fill-opacity:1;stroke:none;stroke-width:0.30000001;stroke-linecap:round;stroke-linejoin:miter;stroke-miterlimit:4;stroke-dasharray:none;stroke-opacity:1;paint-order:fill markers stroke" />
    <path
       sodipodi:nodetypes="cccccsssccccscssc"
       inkscape:connector-curvature="0"
       id="path2024"
       d="m 74.375,97.289065 h 30 c -3.80883,-28.58551 -23.925306,-38.629446 -52,-39.624999 -31.64593,1.190898 -46.089057,15.570609 -47.75,39.749999 1.409012,13.993935 4.481911,27.576565 35,34.374995 15.116165,3.69726 35.248422,4.74246 32.625,17.375 -1.073824,5.17077 -6.805617,7.64554 -10.727665,8.3851 -8.0811,1.52382 -13.586976,0.37178 -17.926807,-1.46321 C 32.417439,151.35956 29.419591,141.55462 29.5,141.16406 H 0 c 4.094183,22.40526 14.63953,40.95188 54.058058,42.22855 26.34916,-1.34418 49.356462,-9.82519 50.420492,-39.68305 C 103.48166,121.1434 90.77478,116.61559 75.353553,112.08456 52.029505,105.23154 38.058777,109.16673 36.25,94.289065 c 0.677126,-3.23406 2.799116,-6.65273 6.085852,-8.76839 6.843781,-4.40532 18.169913,-5.67152 25.97309,1.42887 2.577728,2.34556 4.436931,6.16094 6.066058,10.33952 z"
       style="fill:#fdb302;fill-opacity:1;stroke:none;stroke-width:1px;stroke-linecap:butt;stroke-linejoin:miter;stroke-opacity:1" />
    <path
       id="path2028"
       d="M 172.22266 92.642578 C 164.36202 92.622349 156.90729 95.111341 149.71094 99.1875 L 148.29688 99.894531 L 148.29688 94.767578 L 119.48242 94.767578 L 119.48242 222.04688 L 148.12109 222.04688 L 148.12109 176.79102 C 162.68756 183.20149 177.64506 186.2798 194.08203 176.79102 C 221.65879 158.17146 223.08499 120.06856 194.08203 99.1875 C 186.41035 94.632042 179.15851 92.660428 172.22266 92.642578 z M 164.97461 117.04102 C 171.25221 116.88083 177.55938 119.38653 182.125 125.03906 C 184.05992 128.33448 185.71404 131.53415 186.42383 134.85938 C 187.19942 138.49287 186.89501 142.25259 185.79883 145.85352 C 185.13307 148.0405 183.70471 150.38975 182.125 152.28906 C 180.80097 153.88096 179.35434 155.04645 177.38281 156.30078 C 170.11618 160.92396 160.31472 162.85739 148 151.03906 L 148 125.03906 C 152.44898 120.02728 158.69701 117.2012 164.97461 117.04102 z "
       style="fill:#f7b504;fill-opacity:1;stroke:none;stroke-width:1px;stroke-linecap:butt;stroke-linejoin:miter;stroke-opacity:1" />
    <path
       id="path2050"
       d="M 274.4375 92.501953 A 47.635723 45.661613 0 0 0 226.80273 138.16406 A 47.635723 45.661613 0 0 0 274.4375 183.82617 A 47.635723 45.661613 0 0 0 322.07227 138.16406 A 47.635723 45.661613 0 0 0 274.4375 92.501953 z M 274.5 116.54102 A 20.372501 21.810001 0 0 1 294.87305 138.35156 A 20.372501 21.810001 0 0 1 274.5 160.16211 A 20.372501 21.810001 0 0 1 254.12695 138.35156 A 20.372501 21.810001 0 0 1 274.5 116.54102 z "
       style="fill:#f7b504;fill-opacity:1;stroke:none;stroke-width:0.30000001;stroke-linecap:round;stroke-linejoin:miter;stroke-miterlimit:4;stroke-dasharray:none;stroke-opacity:1;paint-order:fill markers stroke" />
    <path
       sodipodi:nodetypes="ccccccccc"
       inkscape:connector-curvature="0"
       id="path2071"
       d="M 336.74121,95.297905 V 181.0346 h 28.28427 v -49.67426 c 7.16125,-7.25501 17.41805,-9.9404 29.5217,-9.89949 V 93.530135 c -9.61914,0.20693 -19.314,2.76101 -29.16815,10.253045 v -8.838825 z"
       style="fill:#f7b504;fill-opacity:1;stroke:none;stroke-width:1px;stroke-linecap:butt;stroke-linejoin:miter;stroke-opacity:1" />
    <path
       sodipodi:nodetypes="cccccccccccccccc"
       inkscape:connector-curvature="0"
       id="path2084"
       d="m 419.11915,65.776195 v 29.52171 H 402.67891 V 118.8092 h 16.08668 v 30.40559 c 3.13067,17.32309 11.01999,31.35298 32.88047,34.1179 7.64246,0.10526 14.35936,1.08466 27.75394,-4.24264 l -2.82843,-25.27906 c -11.122,3.47689 -22.5925,8.42821 -29.52171,-5.83364 V 118.8092 h 29.87526 V 94.944355 h -29.5217 v -29.16816 z"
       style="fill:#f7b504;fill-opacity:1;stroke:none;stroke-width:1px;stroke-linecap:butt;stroke-linejoin:miter;stroke-opacity:1" />
    <path
       id="path2050-4"
       d="M 534.99609 92.416016 A 47.635723 45.661613 0 0 0 487.36133 138.07812 A 47.635723 45.661613 0 0 0 534.99609 183.74023 A 47.635723 45.661613 0 0 0 582.63281 138.07812 A 47.635723 45.661613 0 0 0 534.99609 92.416016 z M 535.05859 116.45508 A 20.372501 21.810001 0 0 1 555.43164 138.26562 A 20.372501 21.810001 0 0 1 535.05859 160.07617 A 20.372501 21.810001 0 0 1 514.68555 138.26562 A 20.372501 21.810001 0 0 1 535.05859 116.45508 z "
       style="fill:#f7b504;fill-opacity:1;stroke:none;stroke-width:0.30000001;stroke-linecap:round;stroke-linejoin:miter;stroke-miterlimit:4;stroke-dasharray:none;stroke-opacity:1;paint-order:fill markers stroke" />
    <path
       inkscape:connector-curvature="0"
       id="path2166"
       d="M 684.63774,94.944355 647.33786,181.21137 H 620.82135 L 584.22858,95.474685 h 29.16815 l 20.68288,49.851025 21.03642,-50.027805 z"
       style="fill:#f7b504;fill-opacity:1;stroke:none;stroke-width:1px;stroke-linecap:butt;stroke-linejoin:miter;stroke-opacity:1" />
    <path
       sodipodi:nodetypes="ccccsccccsccc"
       inkscape:connector-curvature="0"
       id="path2185"
       d="m 696.125,95.039065 v 85.999995 h 29 v -53.75 c 12.57274,-12.65245 22.91636,-9.12537 28.96079,-1.67938 1.36931,1.68683 2.41421,6.05438 2.41421,6.05438 v 49.125 h 28.625 v -55 c -3.28088,-18.82186 -15.75555,-32.936845 -35.21339,-33.124995 -8.81719,-0.0853 -17.66015,3.73423 -25.14556,7.937135 v -6.010405 z"
       style="fill:#f7b504;fill-opacity:1;stroke:none;stroke-width:1px;stroke-linecap:butt;stroke-linejoin:miter;stroke-opacity:1" />
    <rect
       y="95.039062"
       x="805"
       height="86.125"
       width="28.125"
       id="rect2206"
       style="fill:#f7b504;fill-opacity:1;stroke:none;stroke-width:0.30000001;stroke-linecap:round;stroke-linejoin:miter;stroke-miterlimit:4;stroke-dasharray:none;stroke-opacity:1;paint-order:fill markers stroke" />
    <path
       inkscape:connector-curvature="0"
       id="path2208"
       d="m 807,81.164065 h 26.125 l 16.75,-27.374999 H 820.25 Z"
       style="fill:#f7b504;fill-opacity:1;stroke:none;stroke-width:1px;stroke-linecap:butt;stroke-linejoin:miter;stroke-opacity:1" />
  </g>
</svg>
