<svg width="16" height="16" viewBox="0 0 16 16" fill="none" xmlns="http://www.w3.org/2000/svg">
<path d="M0.118117 0.287584L0.195264 0.195264C0.426678 -0.0361628 0.785918 -0.0618694 1.04574 0.118117L1.13806 0.195264L8 7.05734L14.8619 0.195264C15.0933 -0.0361628 15.4525 -0.0618694 15.7124 0.118117L15.8048 0.195264C16.0361 0.426678 16.0619 0.785918 15.8819 1.04574L15.8048 1.13806L8.94267 8L15.8048 14.8619C16.0361 15.0933 16.0619 15.4525 15.8819 15.7124L15.8048 15.8048C15.5733 16.0361 15.2141 16.0619 14.9543 15.8819L14.8619 15.8048L8 8.94267L1.13806 15.8048C0.906651 16.0361 0.547411 16.0619 0.287584 15.8819L0.195264 15.8048C-0.0361628 15.5733 -0.0618694 15.2141 0.118117 14.9543L0.195264 14.8619L7.05734 8L0.195264 1.13806C-0.0361628 0.906651 -0.0618694 0.547411 0.118117 0.287584L0.195264 0.195264L0.118117 0.287584Z" fill="#FEFCFA"/>
</svg>
