<svg width="12" height="16" viewBox="0 0 12 16" fill="none" xmlns="http://www.w3.org/2000/svg">
<path d="M2 0C0.89543 0 0 0.89543 0 2V14C0 15.1046 0.89543 16 2 16H10C11.1046 16 12 15.1046 12 14V5.41421C12 5.01639 11.842 4.63486 11.5607 4.35355L7.6464 0.43934C7.3651 0.15804 6.9836 0 6.5858 0H2ZM1 2C1 1.44772 1.44772 1 2 1H6V4.5C6 5.32843 6.6716 6 7.5 6H11V14C11 14.5523 10.5523 15 10 15H2C1.44772 15 1 14.5523 1 14V2ZM10.7929 5H7.5C7.2239 5 7 4.77614 7 4.5V1.20711L10.7929 5Z" fill="#19180A"/>
</svg>
