<svg width="20" height="16" viewBox="0 0 20 16" fill="none" xmlns="http://www.w3.org/2000/svg">
<path d="M16.6154 0C18.3147 0 19.6923 1.37759 19.6923 3.07692V12.9231C19.6923 14.6224 18.3147 16 16.6154 16H3.07692C1.37759 16 0 14.6224 0 12.9231V3.07692C0 1.37759 1.37759 0 3.07692 0H16.6154ZM18.4615 4.87508L10.1582 9.76123C9.99766 9.85563 9.80506 9.87139 9.63386 9.80837L9.53414 9.76123L1.23077 4.87754V12.9231C1.23077 13.9426 2.05732 14.7692 3.07692 14.7692H16.6154C17.635 14.7692 18.4615 13.9426 18.4615 12.9231V4.87508ZM16.6154 1.23077H3.07692C2.05732 1.23077 1.23077 2.05732 1.23077 3.07692V3.44862L9.84615 8.5168L18.4615 3.44738V3.07692C18.4615 2.05732 17.635 1.23077 16.6154 1.23077Z" fill="#19180A"/>
</svg>
