<svg width="16" height="13" viewBox="0 0 16 13" fill="none" xmlns="http://www.w3.org/2000/svg">
<path d="M13.5 0C14.8807 0 16 1.11929 16 2.5V10.5C16 11.8807 14.8807 13 13.5 13H2.5C1.11929 13 0 11.8807 0 10.5V2.5C0 1.11929 1.11929 0 2.5 0H13.5ZM15 3.961L8.2535 7.931C8.1231 8.0077 7.96661 8.0205 7.82751 7.9693L7.74649 7.931L1 3.963V10.5C1 11.3284 1.67157 12 2.5 12H13.5C14.3284 12 15 11.3284 15 10.5V3.961ZM13.5 1H2.5C1.67157 1 1 1.67157 1 2.5V2.802L8 6.9199L15 2.801V2.5C15 1.67157 14.3284 1 13.5 1Z" fill="#212121"/>
</svg>
