<svg width="67" height="64" viewBox="0 0 67 64" fill="none" xmlns="http://www.w3.org/2000/svg">
<path d="M67 48.5C67 65.897 39.5833 63 25.5 63C11.4167 63 0 48.897 0 31.5C0 14.103 11.4167 0 25.5 0C39.5833 0 67 31.103 67 48.5Z" fill="#DCAB6B"/>
<path d="M26.8966 46.4C25.2166 46.4 23.7499 46.2 22.4966 45.8C21.2432 45.3733 20.1899 44.8133 19.3366 44.12C18.4832 43.4267 17.8299 42.6667 17.3766 41.84C16.9499 41.0133 16.7232 40.16 16.6966 39.28C16.6966 39.04 16.7766 38.8533 16.9366 38.72C17.0966 38.5867 17.2966 38.52 17.5366 38.52H19.4966C19.7366 38.52 19.9499 38.5733 20.1366 38.68C20.3232 38.7867 20.4832 39.0133 20.6166 39.36C20.8832 40.32 21.3366 41.0667 21.9766 41.6C22.6432 42.1333 23.4032 42.5067 24.2566 42.72C25.1366 42.9067 26.0166 43 26.8966 43C28.7366 43 30.2299 42.56 31.3766 41.68C32.5232 40.8 33.0966 39.5067 33.0966 37.8C33.0966 36.0667 32.5766 34.8267 31.5366 34.08C30.4966 33.3333 29.0566 32.96 27.2166 32.96H23.4166C23.1499 32.96 22.9232 32.88 22.7366 32.72C22.5766 32.56 22.4966 32.3333 22.4966 32.04V30.96C22.4966 30.72 22.5366 30.52 22.6166 30.36C22.7232 30.1733 22.8299 30.0133 22.9366 29.88L30.6966 21.4H18.8966C18.6299 21.4 18.4032 21.32 18.2166 21.16C18.0566 21 17.9766 20.7733 17.9766 20.48V18.96C17.9766 18.6667 18.0566 18.44 18.2166 18.28C18.4032 18.0933 18.6299 18 18.8966 18H34.8566C35.1499 18 35.3766 18.0933 35.5366 18.28C35.7232 18.44 35.8166 18.6667 35.8166 18.96V20.4C35.8166 20.5867 35.7632 20.76 35.6566 20.92C35.5766 21.0533 35.4832 21.1867 35.3766 21.32L27.6566 29.92L28.2966 29.96C30.0566 30.0133 31.5899 30.3333 32.8966 30.92C34.2299 31.5067 35.2566 32.3867 35.9766 33.56C36.7232 34.7067 37.0966 36.16 37.0966 37.92C37.0966 39.7067 36.6566 41.24 35.7766 42.52C34.8966 43.7733 33.6832 44.7333 32.1366 45.4C30.5899 46.0667 28.8432 46.4 26.8966 46.4Z" fill="#19180A"/>
</svg>
