<svg width="67" height="64" viewBox="0 0 67 64" fill="none" xmlns="http://www.w3.org/2000/svg">
<path d="M67 48.5C67 65.897 39.5833 63 25.5 63C11.4167 63 0 48.897 0 31.5C0 14.103 11.4167 0 25.5 0C39.5833 0 67 31.103 67 48.5Z" fill="#DCAB6B"/>
<path d="M27.9306 46C27.664 46 27.4373 45.92 27.2506 45.76C27.0906 45.5733 27.0106 45.3467 27.0106 45.08V22.68L20.3706 27.8C20.1573 27.96 19.9306 28.0267 19.6906 28C19.4506 27.9733 19.2506 27.8533 19.0906 27.64L18.0506 26.32C17.8906 26.08 17.824 25.84 17.8506 25.6C17.904 25.36 18.0373 25.16 18.2506 25L26.9706 18.28C27.1573 18.1467 27.3306 18.0667 27.4906 18.04C27.6506 18.0133 27.824 18 28.0106 18H30.0506C30.3173 18 30.5306 18.0933 30.6906 18.28C30.8506 18.44 30.9306 18.6533 30.9306 18.92V45.08C30.9306 45.3467 30.8506 45.5733 30.6906 45.76C30.5306 45.92 30.3173 46 30.0506 46H27.9306Z" fill="#19180A"/>
</svg>
