<svg width="67" height="64" viewBox="0 0 67 64" fill="none" xmlns="http://www.w3.org/2000/svg">
<path d="M67 48.5C67 65.897 39.5833 63 25.5 63C11.4167 63 0 48.897 0 31.5C0 14.103 11.4167 0 25.5 0C39.5833 0 67 31.103 67 48.5Z" fill="#DCAB6B"/>
<path d="M18.4034 46C18.1368 46 17.9101 45.92 17.7234 45.76C17.5634 45.5733 17.4834 45.3467 17.4834 45.08V43.8C17.4834 43.56 17.5501 43.2933 17.6834 43C17.8168 42.7067 18.0834 42.3867 18.4834 42.04L26.9634 33.56C28.3234 32.4133 29.3901 31.44 30.1634 30.64C30.9634 29.8133 31.5234 29.0267 31.8434 28.28C32.1901 27.5333 32.3634 26.76 32.3634 25.96C32.3634 24.44 31.9368 23.24 31.0834 22.36C30.2301 21.4533 28.9634 21 27.2834 21C26.2168 21 25.2968 21.2267 24.5234 21.68C23.7501 22.1067 23.1368 22.7067 22.6834 23.48C22.2568 24.2267 21.9768 25.08 21.8434 26.04C21.7901 26.3867 21.6434 26.6267 21.4034 26.76C21.1901 26.8933 20.9901 26.96 20.8034 26.96H18.7234C18.4834 26.96 18.2834 26.8933 18.1234 26.76C17.9634 26.6 17.8834 26.4133 17.8834 26.2C17.9101 25.1867 18.1234 24.1733 18.5234 23.16C18.9234 22.12 19.5101 21.1867 20.2834 20.36C21.0834 19.5333 22.0568 18.8667 23.2034 18.36C24.3768 17.8267 25.7368 17.56 27.2834 17.56C29.3901 17.56 31.1101 17.9467 32.4434 18.72C33.8034 19.4667 34.8034 20.4667 35.4434 21.72C36.0834 22.9733 36.4034 24.3467 36.4034 25.84C36.4034 27.0133 36.2034 28.0933 35.8034 29.08C35.4034 30.04 34.8168 30.9867 34.0434 31.92C33.2968 32.8267 32.3634 33.76 31.2434 34.72L23.5634 42.52H36.0434C36.3368 42.52 36.5634 42.6 36.7234 42.76C36.9101 42.92 37.0034 43.1467 37.0034 43.44V45.08C37.0034 45.3467 36.9101 45.5733 36.7234 45.76C36.5634 45.92 36.3368 46 36.0434 46H18.4034Z" fill="#19180A"/>
</svg>
