<svg width="13" height="17" viewBox="0 0 13 17" fill="none" xmlns="http://www.w3.org/2000/svg">
<path d="M3.9873 1.06589L3.27061 1.28192C1.96708 1.67484 1.00969 2.78801 0.81622 4.13565C0.51925 6.20438 1.18348 8.62242 2.78393 11.3945C4.38101 14.1607 6.13891 15.9433 8.0741 16.7231C9.3437 17.2346 10.795 16.9592 11.7889 16.018L12.3317 15.5039C13.0592 14.815 13.1646 13.694 12.5783 12.8815L11.2217 11.0014C10.8461 10.4807 10.1807 10.2569 9.5668 10.4446L7.516 11.0716L7.463 11.082C7.2369 11.115 6.71565 10.6259 6.06551 9.4999C5.38537 8.32181 5.24441 7.63298 5.43219 7.45541L6.47554 6.48248C7.2575 5.75332 7.4885 4.60728 7.0501 3.63213L6.38866 2.16075C5.97676 1.24451 4.94912 0.775973 3.9873 1.06589ZM5.47658 2.57077L6.13804 4.04215C6.40087 4.62682 6.26236 5.31395 5.79354 5.75113L4.74764 6.72645C4.07854 7.35918 4.30016 8.44218 5.19949 9.9999C6.04569 11.4655 6.81768 12.1898 7.6472 12.0642L7.7715 12.0376L9.8591 11.4009C10.0638 11.3383 10.2856 11.413 10.4108 11.5865L11.7674 13.4666C12.0605 13.8729 12.0078 14.4334 11.6441 14.7778L11.1013 15.2919C10.3914 15.9642 9.3547 16.1609 8.4479 15.7955C6.74981 15.1113 5.145 13.484 3.64995 10.8945C2.15185 8.29969 1.54555 6.09254 1.80607 4.27775C1.94426 3.31515 2.62812 2.52003 3.55921 2.23937L4.2759 2.02334C4.75681 1.87838 5.27063 2.11265 5.47658 2.57077Z" fill="#212121"/>
</svg>
