<svg width="13" height="16" viewBox="0 0 13 16" fill="none" xmlns="http://www.w3.org/2000/svg">
<path d="M3.24073 0.0854437L2.52388 0.301523C1.22005 0.694534 0.262436 1.80796 0.0689216 3.15591C-0.228117 5.22512 0.436266 7.64371 2.03708 10.4164C3.63453 13.1833 5.39284 14.9663 7.32847 15.7463C8.59836 16.2579 10.05 15.9824 11.0441 15.041L11.5871 14.5268C12.3147 13.8377 12.4201 12.7165 11.8337 11.9038L10.4768 10.0232C10.1011 9.50242 9.43556 9.27857 8.82151 9.46631L6.77024 10.0935L6.71723 10.1039C6.49108 10.1369 5.96971 9.64765 5.31942 8.52139C4.63912 7.34303 4.49813 6.65404 4.68595 6.47643L5.72954 5.50328C6.51168 4.77395 6.74274 3.62765 6.30424 2.65227L5.64264 1.18056C5.23065 0.264105 4.20277 -0.204543 3.24073 0.0854437ZM4.73035 1.59067L5.39197 3.06239C5.65486 3.64719 5.51631 4.33448 5.04739 4.77176L4.00125 5.74731C3.33199 6.38018 3.55366 7.46343 4.4532 9.02151C5.29959 10.4874 6.07176 11.2119 6.90147 11.0863L7.0258 11.0597L9.11388 10.4228C9.31863 10.3602 9.54048 10.4349 9.66571 10.6085L11.0226 12.489C11.3158 12.8954 11.2631 13.456 10.8993 13.8005L10.3564 14.3147C9.6463 14.9872 8.60937 15.1839 7.70236 14.8184C6.00388 14.1341 4.3987 12.5064 2.9033 9.91631C1.40486 7.32091 0.798419 5.11325 1.059 3.29804C1.19722 2.33522 1.88124 1.53992 2.81254 1.25919L3.5294 1.04311C4.01042 0.898121 4.52436 1.13244 4.73035 1.59067Z" fill="#FEFCFA"/>
</svg>
