<svg width="14" height="16" viewBox="0 0 14 16" fill="none" xmlns="http://www.w3.org/2000/svg">
<path d="M9.99999 6.99999C9.99999 8.65689 8.65689 9.99999 6.99999 9.99999C5.34315 9.99999 4 8.65689 4 6.99999C4 5.34315 5.34315 4 6.99999 4C8.65689 4 9.99999 5.34315 9.99999 6.99999ZM8.99999 6.99999C8.99999 5.89543 8.10459 5 6.99999 5C5.89543 5 5 5.89543 5 6.99999C5 8.10459 5.89543 8.99999 6.99999 8.99999C8.10459 8.99999 8.99999 8.10459 8.99999 6.99999Z" fill="#19180A"/>
<path d="M11.9497 11.955C14.6834 9.22009 14.6834 4.786 11.9497 2.05115C9.21609 -0.683716 4.78391 -0.683716 2.05025 2.05115C-0.683416 4.786 -0.683416 9.22009 2.05025 11.955L3.57128 13.4538L5.61407 15.4389L5.7469 15.5567C6.52167 16.1847 7.65619 16.1455 8.38609 15.4391L10.8223 13.0691L11.9497 11.955ZM2.75499 2.75619C5.09943 0.410722 8.90059 0.410722 11.245 2.75619C13.5294 5.04152 13.5879 8.71039 11.4207 11.0667L11.245 11.2499L9.92368 12.5539L7.69309 14.7225L7.60019 14.8021C7.24589 15.0699 6.75429 15.0698 6.40011 14.802L6.30712 14.7224L3.3263 11.817L2.75499 11.2499L2.57927 11.0667C0.412081 8.71039 0.470652 5.04152 2.75499 2.75619Z" fill="#19180A"/>
</svg>
