<svg width="14" height="16" viewBox="0 0 14 16" fill="none" xmlns="http://www.w3.org/2000/svg">
<path d="M10 7C10 8.6569 8.6569 10 7 10C5.34315 10 4 8.6569 4 7C4 5.34315 5.34315 4 7 4C8.6569 4 10 5.34315 10 7ZM9 7C9 5.89543 8.1046 5 7 5C5.89543 5 5 5.89543 5 7C5 8.1046 5.89543 9 7 9C8.1046 9 9 8.1046 9 7Z" fill="#212121"/>
<path d="M11.9497 11.955C14.6834 9.2201 14.6834 4.78601 11.9497 2.05115C9.2161 -0.683717 4.78392 -0.683717 2.05025 2.05115C-0.683418 4.78601 -0.683418 9.2201 2.05025 11.955L3.57128 13.4538L5.61408 15.4389L5.74691 15.5567C6.52168 16.1847 7.6562 16.1455 8.3861 15.4391L10.8223 13.0691L11.9497 11.955ZM2.75499 2.75619C5.09944 0.410722 8.9006 0.410722 11.245 2.75619C13.5294 5.04153 13.5879 8.7104 11.4207 11.0667L11.245 11.2499L9.9237 12.5539L7.6931 14.7225L7.6002 14.8021C7.2459 15.0699 6.7543 15.0698 6.40012 14.802L6.30713 14.7224L3.3263 11.817L2.75499 11.2499L2.57927 11.0667C0.412082 8.7104 0.470653 5.04153 2.75499 2.75619Z" fill="#212121"/>
</svg>
